<mxfile host="app.diagrams.net" agent="Mozilla/5.0 (Windows NT 10.0; Win64; x64; rv:131.0) Gecko/20100101 Firefox/131.0" version="24.8.3">
  <diagram name="Page-1" id="13e1069c-82ec-6db2-03f1-153e76fe0fe0">
    <mxGraphModel dx="1062" dy="573" grid="1" gridSize="10" guides="1" tooltips="1" connect="1" arrows="1" fold="1" page="1" pageScale="1" pageWidth="1100" pageHeight="850" background="none" math="0" shadow="0">
      <root>
        <mxCell id="0" />
        <mxCell id="1" parent="0" />
        <mxCell id="7baba1c4bc27f4b0-2" value="Головна сторінка" style="shape=umlLifeline;perimeter=lifelinePerimeter;whiteSpace=wrap;html=1;container=1;collapsible=0;recursiveResize=0;outlineConnect=0;rounded=1;shadow=0;comic=0;labelBackgroundColor=none;strokeWidth=1;fontFamily=Verdana;fontSize=12;align=center;" parent="1" vertex="1">
          <mxGeometry x="240" y="80" width="100" height="810" as="geometry" />
        </mxCell>
        <mxCell id="7baba1c4bc27f4b0-10" value="" style="html=1;points=[];perimeter=orthogonalPerimeter;rounded=0;shadow=0;comic=0;labelBackgroundColor=none;strokeWidth=1;fontFamily=Verdana;fontSize=12;align=center;" parent="7baba1c4bc27f4b0-2" vertex="1">
          <mxGeometry x="45" y="90" width="10" height="20" as="geometry" />
        </mxCell>
        <mxCell id="R_-QE0CHb6OJqJzvKBny-4" value="" style="html=1;points=[];perimeter=orthogonalPerimeter;rounded=0;shadow=0;comic=0;labelBackgroundColor=none;strokeWidth=1;fontFamily=Verdana;fontSize=12;align=center;" vertex="1" parent="7baba1c4bc27f4b0-2">
          <mxGeometry x="45" y="180" width="10" height="20" as="geometry" />
        </mxCell>
        <mxCell id="R_-QE0CHb6OJqJzvKBny-6" value="Авторизація" style="html=1;verticalAlign=bottom;endArrow=open;dashed=1;endSize=8;labelBackgroundColor=none;fontFamily=Verdana;fontSize=12;edgeStyle=elbowEdgeStyle;elbow=vertical;entryX=1.083;entryY=0.479;entryDx=0;entryDy=0;entryPerimeter=0;" edge="1" parent="7baba1c4bc27f4b0-2" target="R_-QE0CHb6OJqJzvKBny-4">
          <mxGeometry relative="1" as="geometry">
            <mxPoint x="60" y="190" as="targetPoint" />
            <Array as="points">
              <mxPoint x="70" y="190" />
              <mxPoint x="100" y="190" />
            </Array>
            <mxPoint x="235" y="180" as="sourcePoint" />
          </mxGeometry>
        </mxCell>
        <mxCell id="7baba1c4bc27f4b0-3" value="Сторінка авторизації" style="shape=umlLifeline;perimeter=lifelinePerimeter;whiteSpace=wrap;html=1;container=1;collapsible=0;recursiveResize=0;outlineConnect=0;rounded=1;shadow=0;comic=0;labelBackgroundColor=none;strokeWidth=1;fontFamily=Verdana;fontSize=12;align=center;" parent="1" vertex="1">
          <mxGeometry x="420" y="80" width="100" height="810" as="geometry" />
        </mxCell>
        <mxCell id="7baba1c4bc27f4b0-13" value="" style="html=1;points=[];perimeter=orthogonalPerimeter;rounded=0;shadow=0;comic=0;labelBackgroundColor=none;strokeWidth=1;fontFamily=Verdana;fontSize=12;align=center;" parent="7baba1c4bc27f4b0-3" vertex="1">
          <mxGeometry x="45" y="90" width="10" height="110" as="geometry" />
        </mxCell>
        <mxCell id="7baba1c4bc27f4b0-23" value="Змінити розклад детектива" style="html=1;verticalAlign=bottom;endArrow=block;labelBackgroundColor=none;fontFamily=Verdana;fontSize=12;exitX=1.213;exitY=0.61;exitDx=0;exitDy=0;exitPerimeter=0;entryX=-0.117;entryY=0.125;entryDx=0;entryDy=0;entryPerimeter=0;" parent="7baba1c4bc27f4b0-3" target="7baba1c4bc27f4b0-19" edge="1">
          <mxGeometry relative="1" as="geometry">
            <mxPoint x="-289.9999999999999" y="280" as="sourcePoint" />
            <mxPoint x="400" y="280" as="targetPoint" />
          </mxGeometry>
        </mxCell>
        <mxCell id="R_-QE0CHb6OJqJzvKBny-9" value="Оновити відображаємий розклад для детектива та менеджера" style="html=1;verticalAlign=bottom;endArrow=open;dashed=1;endSize=8;labelBackgroundColor=none;fontFamily=Verdana;fontSize=12;edgeStyle=elbowEdgeStyle;elbow=vertical;exitX=0.443;exitY=0.435;exitDx=0;exitDy=0;exitPerimeter=0;entryX=1.281;entryY=0.497;entryDx=0;entryDy=0;entryPerimeter=0;" edge="1" parent="7baba1c4bc27f4b0-3">
          <mxGeometry relative="1" as="geometry">
            <mxPoint x="-290" y="343" as="targetPoint" />
            <Array as="points">
              <mxPoint x="213" y="343" />
              <mxPoint x="243" y="343" />
            </Array>
            <mxPoint x="422" y="345" as="sourcePoint" />
          </mxGeometry>
        </mxCell>
        <mxCell id="R_-QE0CHb6OJqJzvKBny-24" value="Ухвалити створення нової справи" style="html=1;verticalAlign=bottom;endArrow=block;labelBackgroundColor=none;fontFamily=Verdana;fontSize=12;exitX=0.918;exitY=0.658;exitDx=0;exitDy=0;exitPerimeter=0;entryX=0.011;entryY=0.127;entryDx=0;entryDy=0;entryPerimeter=0;" edge="1" parent="7baba1c4bc27f4b0-3">
          <mxGeometry relative="1" as="geometry">
            <mxPoint x="-290" y="740.0000000000001" as="sourcePoint" />
            <mxPoint x="705" y="740" as="targetPoint" />
          </mxGeometry>
        </mxCell>
        <mxCell id="7baba1c4bc27f4b0-4" value="Сторінка коментарів" style="shape=umlLifeline;perimeter=lifelinePerimeter;whiteSpace=wrap;html=1;container=1;collapsible=0;recursiveResize=0;outlineConnect=0;rounded=1;shadow=0;comic=0;labelBackgroundColor=none;strokeWidth=1;fontFamily=Verdana;fontSize=12;align=center;" parent="1" vertex="1">
          <mxGeometry x="600" y="80" width="100" height="810" as="geometry" />
        </mxCell>
        <mxCell id="7baba1c4bc27f4b0-26" value="Відсортувати клієнтів за параметрами" style="html=1;verticalAlign=bottom;endArrow=block;labelBackgroundColor=none;fontFamily=Verdana;fontSize=12;exitX=0.918;exitY=0.658;exitDx=0;exitDy=0;exitPerimeter=0;entryX=-0.047;entryY=0.079;entryDx=0;entryDy=0;entryPerimeter=0;" parent="7baba1c4bc27f4b0-4" edge="1">
          <mxGeometry relative="1" as="geometry">
            <mxPoint x="-470.35" y="380.2600000000001" as="sourcePoint" />
            <mxPoint x="384.9999999999998" y="380" as="targetPoint" />
          </mxGeometry>
        </mxCell>
        <mxCell id="R_-QE0CHb6OJqJzvKBny-11" value="Змінити опис клієнта" style="html=1;verticalAlign=bottom;endArrow=block;labelBackgroundColor=none;fontFamily=Verdana;fontSize=12;exitX=0.918;exitY=0.658;exitDx=0;exitDy=0;exitPerimeter=0;entryX=-0.032;entryY=0.357;entryDx=0;entryDy=0;entryPerimeter=0;" edge="1" parent="7baba1c4bc27f4b0-4" target="7baba1c4bc27f4b0-28">
          <mxGeometry relative="1" as="geometry">
            <mxPoint x="-478.00000000000006" y="460.0000000000001" as="sourcePoint" />
            <mxPoint x="377.81999999999994" y="460" as="targetPoint" />
          </mxGeometry>
        </mxCell>
        <mxCell id="7baba1c4bc27f4b0-5" value="Сторінка Детективів" style="shape=umlLifeline;perimeter=lifelinePerimeter;whiteSpace=wrap;html=1;container=1;collapsible=0;recursiveResize=0;outlineConnect=0;rounded=1;shadow=0;comic=0;labelBackgroundColor=none;strokeWidth=1;fontFamily=Verdana;fontSize=12;align=center;" parent="1" vertex="1">
          <mxGeometry x="790" y="80" width="100" height="810" as="geometry" />
        </mxCell>
        <mxCell id="7baba1c4bc27f4b0-19" value="" style="html=1;points=[];perimeter=orthogonalPerimeter;rounded=0;shadow=0;comic=0;labelBackgroundColor=none;strokeWidth=1;fontFamily=Verdana;fontSize=12;align=center;" parent="7baba1c4bc27f4b0-5" vertex="1">
          <mxGeometry x="45" y="270" width="10" height="80" as="geometry" />
        </mxCell>
        <mxCell id="R_-QE0CHb6OJqJzvKBny-19" value="Надіслати повідомлення клієнту про зміни в справі" style="html=1;verticalAlign=bottom;endArrow=open;dashed=1;endSize=8;labelBackgroundColor=none;fontFamily=Verdana;fontSize=12;edgeStyle=elbowEdgeStyle;elbow=vertical;entryX=1.177;entryY=0.751;entryDx=0;entryDy=0;entryPerimeter=0;exitX=-0.018;exitY=0.258;exitDx=0;exitDy=0;exitPerimeter=0;" edge="1" parent="7baba1c4bc27f4b0-5">
          <mxGeometry relative="1" as="geometry">
            <mxPoint x="-660" y="620" as="targetPoint" />
            <Array as="points">
              <mxPoint x="-19" y="620" />
              <mxPoint x="11" y="620" />
            </Array>
            <mxPoint x="193" y="620" as="sourcePoint" />
          </mxGeometry>
        </mxCell>
        <mxCell id="R_-QE0CHb6OJqJzvKBny-20" value="Підтвердити зміни" style="html=1;verticalAlign=bottom;endArrow=block;labelBackgroundColor=none;fontFamily=Verdana;fontSize=12;exitX=0.918;exitY=0.658;exitDx=0;exitDy=0;exitPerimeter=0;entryX=-0.047;entryY=0.079;entryDx=0;entryDy=0;entryPerimeter=0;" edge="1" parent="7baba1c4bc27f4b0-5">
          <mxGeometry relative="1" as="geometry">
            <mxPoint x="-660" y="580.0000000000001" as="sourcePoint" />
            <mxPoint x="195.82000000000005" y="580" as="targetPoint" />
          </mxGeometry>
        </mxCell>
        <mxCell id="R_-QE0CHb6OJqJzvKBny-21" value="Відсортувати справи" style="html=1;verticalAlign=bottom;endArrow=block;labelBackgroundColor=none;fontFamily=Verdana;fontSize=12;exitX=0.918;exitY=0.658;exitDx=0;exitDy=0;exitPerimeter=0;entryX=0.011;entryY=0.127;entryDx=0;entryDy=0;entryPerimeter=0;" edge="1" parent="7baba1c4bc27f4b0-5" target="7baba1c4bc27f4b0-25">
          <mxGeometry relative="1" as="geometry">
            <mxPoint x="-660" y="660.0000000000001" as="sourcePoint" />
            <mxPoint x="195.82000000000005" y="660" as="targetPoint" />
          </mxGeometry>
        </mxCell>
        <mxCell id="7baba1c4bc27f4b0-6" value="Сторінка клієнтів" style="shape=umlLifeline;perimeter=lifelinePerimeter;whiteSpace=wrap;html=1;container=1;collapsible=0;recursiveResize=0;outlineConnect=0;rounded=1;shadow=0;comic=0;labelBackgroundColor=none;strokeWidth=1;fontFamily=Verdana;fontSize=12;align=center;" parent="1" vertex="1">
          <mxGeometry x="940" y="80" width="100" height="810" as="geometry" />
        </mxCell>
        <mxCell id="7baba1c4bc27f4b0-28" value="" style="html=1;points=[];perimeter=orthogonalPerimeter;rounded=0;shadow=0;comic=0;labelBackgroundColor=none;strokeWidth=1;fontFamily=Verdana;fontSize=12;align=center;" parent="7baba1c4bc27f4b0-6" vertex="1">
          <mxGeometry x="45" y="365" width="10" height="265" as="geometry" />
        </mxCell>
        <mxCell id="7baba1c4bc27f4b0-7" value="Сторінка справ" style="shape=umlLifeline;perimeter=lifelinePerimeter;whiteSpace=wrap;html=1;container=1;collapsible=0;recursiveResize=0;outlineConnect=0;rounded=1;shadow=0;comic=0;labelBackgroundColor=none;strokeWidth=1;fontFamily=Verdana;fontSize=12;align=center;" parent="1" vertex="1">
          <mxGeometry x="1080" y="80" width="100" height="810" as="geometry" />
        </mxCell>
        <mxCell id="7baba1c4bc27f4b0-25" value="" style="html=1;points=[];perimeter=orthogonalPerimeter;rounded=0;shadow=0;comic=0;labelBackgroundColor=none;strokeColor=#000000;strokeWidth=1;fillColor=#FFFFFF;fontFamily=Verdana;fontSize=12;fontColor=#000000;align=center;" parent="7baba1c4bc27f4b0-7" vertex="1">
          <mxGeometry x="45" y="640" width="10" height="160" as="geometry" />
        </mxCell>
        <mxCell id="7baba1c4bc27f4b0-16" value="" style="html=1;points=[];perimeter=orthogonalPerimeter;rounded=0;shadow=0;comic=0;labelBackgroundColor=none;strokeWidth=1;fontFamily=Verdana;fontSize=12;align=center;" parent="1" vertex="1">
          <mxGeometry x="645" y="290" width="10" height="50" as="geometry" />
        </mxCell>
        <mxCell id="7baba1c4bc27f4b0-11" value="Відкрити веб-сайт" style="html=1;verticalAlign=bottom;endArrow=block;labelBackgroundColor=none;fontFamily=Verdana;fontSize=12;edgeStyle=elbowEdgeStyle;elbow=vertical;exitX=0.43;exitY=0.023;exitDx=0;exitDy=0;exitPerimeter=0;entryX=-0.043;entryY=0.472;entryDx=0;entryDy=0;entryPerimeter=0;" parent="1" source="R_-QE0CHb6OJqJzvKBny-1" target="7baba1c4bc27f4b0-10" edge="1">
          <mxGeometry relative="1" as="geometry">
            <mxPoint x="165" y="180.04347826086962" as="sourcePoint" />
            <mxPoint x="280" y="180" as="targetPoint" />
          </mxGeometry>
        </mxCell>
        <mxCell id="7baba1c4bc27f4b0-14" value="Запит на авторизацію" style="html=1;verticalAlign=bottom;endArrow=block;labelBackgroundColor=none;fontFamily=Verdana;fontSize=12;edgeStyle=elbowEdgeStyle;elbow=vertical;exitX=0.948;exitY=0.48;exitDx=0;exitDy=0;exitPerimeter=0;entryX=-0.113;entryY=0.091;entryDx=0;entryDy=0;entryPerimeter=0;" parent="1" source="7baba1c4bc27f4b0-10" target="7baba1c4bc27f4b0-13" edge="1">
          <mxGeometry x="-0.0669" relative="1" as="geometry">
            <mxPoint x="300" y="180" as="sourcePoint" />
            <mxPoint x="460" y="180" as="targetPoint" />
            <mxPoint as="offset" />
            <Array as="points">
              <mxPoint x="300" y="180" />
            </Array>
          </mxGeometry>
        </mxCell>
        <mxCell id="R_-QE0CHb6OJqJzvKBny-1" value="" style="html=1;points=[];perimeter=orthogonalPerimeter;rounded=0;shadow=0;comic=0;labelBackgroundColor=none;strokeWidth=1;fontFamily=Verdana;fontSize=12;align=center;" vertex="1" parent="1">
          <mxGeometry x="120" y="170" width="10" height="440" as="geometry" />
        </mxCell>
        <mxCell id="R_-QE0CHb6OJqJzvKBny-2" value="Користувач" style="shape=umlActor;verticalLabelPosition=bottom;verticalAlign=top;html=1;" vertex="1" parent="1">
          <mxGeometry x="110" y="60" width="30" height="60" as="geometry" />
        </mxCell>
        <mxCell id="R_-QE0CHb6OJqJzvKBny-3" value="Форма для входу в аккаунт" style="html=1;verticalAlign=bottom;endArrow=open;dashed=1;endSize=8;labelBackgroundColor=none;fontFamily=Verdana;fontSize=12;edgeStyle=elbowEdgeStyle;elbow=vertical;exitX=0.113;exitY=0.364;exitDx=0;exitDy=0;exitPerimeter=0;" edge="1" parent="1" source="7baba1c4bc27f4b0-13">
          <mxGeometry relative="1" as="geometry">
            <mxPoint x="130" y="210" as="targetPoint" />
            <Array as="points">
              <mxPoint x="280" y="210" />
              <mxPoint x="310" y="210" />
            </Array>
            <mxPoint x="460" y="210" as="sourcePoint" />
          </mxGeometry>
        </mxCell>
        <mxCell id="R_-QE0CHb6OJqJzvKBny-5" value="Дані введені в форму" style="html=1;verticalAlign=bottom;endArrow=block;labelBackgroundColor=none;fontFamily=Verdana;fontSize=12;edgeStyle=elbowEdgeStyle;elbow=vertical;entryX=-0.078;entryY=0.639;entryDx=0;entryDy=0;entryPerimeter=0;" edge="1" parent="1" target="7baba1c4bc27f4b0-13">
          <mxGeometry relative="1" as="geometry">
            <mxPoint x="130" y="240" as="sourcePoint" />
            <Array as="points">
              <mxPoint x="145" y="240" />
            </Array>
            <mxPoint x="460" y="240" as="targetPoint" />
          </mxGeometry>
        </mxCell>
        <mxCell id="7baba1c4bc27f4b0-17" value="Написати коментар" style="html=1;verticalAlign=bottom;endArrow=block;labelBackgroundColor=none;fontFamily=Verdana;fontSize=12;edgeStyle=elbowEdgeStyle;elbow=vertical;exitX=1.126;exitY=0.298;exitDx=0;exitDy=0;exitPerimeter=0;entryX=-0.006;entryY=0.203;entryDx=0;entryDy=0;entryPerimeter=0;" parent="1" source="R_-QE0CHb6OJqJzvKBny-1" target="7baba1c4bc27f4b0-16" edge="1">
          <mxGeometry relative="1" as="geometry">
            <mxPoint x="140" y="299.9999999999999" as="sourcePoint" />
            <Array as="points" />
            <mxPoint x="640" y="301" as="targetPoint" />
          </mxGeometry>
        </mxCell>
        <mxCell id="R_-QE0CHb6OJqJzvKBny-7" value="Список коментарів оновити " style="html=1;verticalAlign=bottom;endArrow=open;dashed=1;endSize=8;labelBackgroundColor=none;fontFamily=Verdana;fontSize=12;edgeStyle=elbowEdgeStyle;elbow=vertical;entryX=1.211;entryY=0.364;entryDx=0;entryDy=0;entryPerimeter=0;" edge="1" parent="1" target="R_-QE0CHb6OJqJzvKBny-1">
          <mxGeometry relative="1" as="geometry">
            <mxPoint x="160" y="330" as="targetPoint" />
            <Array as="points">
              <mxPoint x="435" y="330" />
              <mxPoint x="465" y="330" />
            </Array>
            <mxPoint x="644" y="330" as="sourcePoint" />
          </mxGeometry>
        </mxCell>
        <mxCell id="R_-QE0CHb6OJqJzvKBny-8" value="Отримати повідомлення про зміну розкладу" style="html=1;verticalAlign=bottom;endArrow=open;dashed=1;endSize=8;labelBackgroundColor=none;fontFamily=Verdana;fontSize=12;edgeStyle=elbowEdgeStyle;elbow=vertical;entryX=1.318;entryY=0.498;entryDx=0;entryDy=0;entryPerimeter=0;exitX=-0.102;exitY=0.488;exitDx=0;exitDy=0;exitPerimeter=0;" edge="1" parent="1" source="7baba1c4bc27f4b0-19" target="R_-QE0CHb6OJqJzvKBny-1">
          <mxGeometry relative="1" as="geometry">
            <mxPoint x="333" y="389" as="targetPoint" />
            <Array as="points">
              <mxPoint x="636" y="389" />
              <mxPoint x="666" y="389" />
            </Array>
            <mxPoint x="830" y="389" as="sourcePoint" />
          </mxGeometry>
        </mxCell>
        <mxCell id="R_-QE0CHb6OJqJzvKBny-12" value="Редагувати справи клієнта" style="html=1;verticalAlign=bottom;endArrow=block;labelBackgroundColor=none;fontFamily=Verdana;fontSize=12;exitX=0.918;exitY=0.658;exitDx=0;exitDy=0;exitPerimeter=0;entryX=-0.047;entryY=0.079;entryDx=0;entryDy=0;entryPerimeter=0;" edge="1" parent="1">
          <mxGeometry relative="1" as="geometry">
            <mxPoint x="129.99999999999994" y="580.0000000000001" as="sourcePoint" />
            <mxPoint x="985.82" y="580" as="targetPoint" />
          </mxGeometry>
        </mxCell>
        <mxCell id="R_-QE0CHb6OJqJzvKBny-13" value="Повернути відсортованих клієнтів" style="html=1;verticalAlign=bottom;endArrow=open;dashed=1;endSize=8;labelBackgroundColor=none;fontFamily=Verdana;fontSize=12;edgeStyle=elbowEdgeStyle;elbow=vertical;entryX=1.177;entryY=0.751;entryDx=0;entryDy=0;entryPerimeter=0;exitX=-0.055;exitY=0.208;exitDx=0;exitDy=0;exitPerimeter=0;" edge="1" parent="1" source="7baba1c4bc27f4b0-28" target="R_-QE0CHb6OJqJzvKBny-1">
          <mxGeometry relative="1" as="geometry">
            <mxPoint x="270" y="500" as="targetPoint" />
            <Array as="points">
              <mxPoint x="773" y="500" />
              <mxPoint x="803" y="500" />
            </Array>
            <mxPoint x="980" y="500" as="sourcePoint" />
          </mxGeometry>
        </mxCell>
        <mxCell id="R_-QE0CHb6OJqJzvKBny-14" value="" style="html=1;points=[];perimeter=orthogonalPerimeter;rounded=0;shadow=0;comic=0;labelBackgroundColor=none;strokeWidth=1;fontFamily=Verdana;fontSize=12;align=center;" vertex="1" parent="1">
          <mxGeometry x="120" y="610" width="10" height="280" as="geometry" />
        </mxCell>
        <mxCell id="R_-QE0CHb6OJqJzvKBny-15" value="" style="rounded=0;whiteSpace=wrap;html=1;strokeColor=none;perimeterSpacing=1;strokeWidth=0;shadow=0;" vertex="1" parent="1">
          <mxGeometry x="120" y="590" width="10" height="30" as="geometry" />
        </mxCell>
        <mxCell id="R_-QE0CHb6OJqJzvKBny-16" value="" style="endArrow=none;html=1;rounded=0;entryX=1.012;entryY=0.945;entryDx=0;entryDy=0;entryPerimeter=0;exitX=1.019;exitY=0.074;exitDx=0;exitDy=0;exitPerimeter=0;" edge="1" parent="1">
          <mxGeometry width="50" height="50" relative="1" as="geometry">
            <mxPoint x="130" y="646.7600000000001" as="sourcePoint" />
            <mxPoint x="129.93" y="590" as="targetPoint" />
          </mxGeometry>
        </mxCell>
        <mxCell id="R_-QE0CHb6OJqJzvKBny-17" value="" style="endArrow=none;html=1;rounded=0;entryX=1.012;entryY=0.945;entryDx=0;entryDy=0;entryPerimeter=0;exitX=1.019;exitY=0.074;exitDx=0;exitDy=0;exitPerimeter=0;" edge="1" parent="1">
          <mxGeometry width="50" height="50" relative="1" as="geometry">
            <mxPoint x="120.07" y="646.7600000000001" as="sourcePoint" />
            <mxPoint x="120" y="590" as="targetPoint" />
          </mxGeometry>
        </mxCell>
        <mxCell id="R_-QE0CHb6OJqJzvKBny-18" value="Додати до справи новий файл" style="html=1;verticalAlign=bottom;endArrow=block;labelBackgroundColor=none;fontFamily=Verdana;fontSize=12;exitX=0.918;exitY=0.658;exitDx=0;exitDy=0;exitPerimeter=0;entryX=-0.047;entryY=0.079;entryDx=0;entryDy=0;entryPerimeter=0;" edge="1" parent="1">
          <mxGeometry relative="1" as="geometry">
            <mxPoint x="129.99999999999994" y="620.0000000000001" as="sourcePoint" />
            <mxPoint x="985.82" y="620" as="targetPoint" />
          </mxGeometry>
        </mxCell>
        <mxCell id="R_-QE0CHb6OJqJzvKBny-25" value="Надіслати інформацію про зміну статусу справи детективу та клієнту" style="html=1;verticalAlign=bottom;endArrow=open;dashed=1;endSize=8;labelBackgroundColor=none;fontFamily=Verdana;fontSize=12;edgeStyle=elbowEdgeStyle;elbow=vertical;" edge="1" parent="1">
          <mxGeometry relative="1" as="geometry">
            <mxPoint x="130" y="860" as="targetPoint" />
            <Array as="points">
              <mxPoint x="761" y="860" />
              <mxPoint x="791" y="860" />
            </Array>
            <mxPoint x="1126" y="860" as="sourcePoint" />
          </mxGeometry>
        </mxCell>
        <mxCell id="R_-QE0CHb6OJqJzvKBny-22" value="Повернути відсортовані справи" style="html=1;verticalAlign=bottom;endArrow=open;dashed=1;endSize=8;labelBackgroundColor=none;fontFamily=Verdana;fontSize=12;edgeStyle=elbowEdgeStyle;elbow=vertical;entryX=1;entryY=0.607;entryDx=0;entryDy=0;entryPerimeter=0;" edge="1" parent="1" source="7baba1c4bc27f4b0-7" target="R_-QE0CHb6OJqJzvKBny-14">
          <mxGeometry relative="1" as="geometry">
            <mxPoint x="140" y="780" as="targetPoint" />
            <Array as="points">
              <mxPoint x="765" y="780" />
              <mxPoint x="795" y="780" />
            </Array>
            <mxPoint x="976" y="780" as="sourcePoint" />
          </mxGeometry>
        </mxCell>
      </root>
    </mxGraphModel>
  </diagram>
</mxfile>
